<svg width="24" height="25" viewBox="0 0 24 25" fill="none" xmlns="http://www.w3.org/2000/svg">
<rect x="0.25" y="0.75" width="23.5" height="23.5" rx="3.75" stroke="#7D879C" stroke-width="0.5"/>
<path d="M8.9627 13.452L6.00336 13.7138C5.33924 13.7138 4.80078 13.17 4.80078 12.4995C4.80078 11.8288 5.33924 11.2852 6.00336 11.2852L8.9627 11.5468C9.48371 11.5468 9.90609 11.9734 9.90609 12.4995C9.90609 13.0264 9.48371 13.452 8.9627 13.452Z" fill="#7D879C"/>
<path d="M18.9 13.404C18.8538 13.4507 18.681 13.6481 18.5186 13.812C17.5717 14.8386 15.0993 16.5173 13.806 17.031C13.6097 17.113 13.1131 17.2875 12.8469 17.2998C12.593 17.2998 12.3503 17.2408 12.1191 17.1244C11.8302 16.9614 11.5998 16.7041 11.4724 16.4009C11.3912 16.1913 11.2638 15.5612 11.2638 15.5497C11.1373 14.8615 11.0684 13.7423 11.0684 12.5052C11.0684 11.3279 11.1373 10.2546 11.2412 9.55489C11.2525 9.54255 11.3799 8.76092 11.5187 8.49303C11.7726 8.00308 12.2692 7.69995 12.8007 7.69995H12.8469C13.1934 7.71141 13.9212 8.01543 13.9212 8.02599C15.1456 8.53974 17.5595 10.1374 18.5299 11.1993C18.5299 11.1993 18.804 11.4724 18.9226 11.6424C19.1077 11.8874 19.2002 12.1906 19.2002 12.4937C19.2002 12.8321 19.0963 13.1467 18.9 13.404Z" fill="#EBEFF4"/>
</svg>
