<svg xmlns="http://www.w3.org/2000/svg" width="16" height="16" viewBox="0 0 16 16" fill="none">
  <path fill-rule="evenodd" clip-rule="evenodd" d="M11.3561 3.43925V2.73749C11.3561 1.96236 10.7523 1.33398 10.0075 1.33398H5.96175C5.21695 1.33398 4.61317 1.96236 4.61317 2.73749V3.43925H2.5903C2.21791 3.43925 1.91602 3.75343 1.91602 4.141C1.91602 4.52857 2.21791 4.84276 2.5903 4.84276H3.26459V12.5621C3.26459 13.7248 4.17026 14.6673 5.28746 14.6673H10.6818C11.799 14.6673 12.7046 13.7248 12.7046 12.5621V4.84276H13.3789C13.7513 4.84276 14.0532 4.52857 14.0532 4.141C14.0532 3.75343 13.7513 3.43925 13.3789 3.43925H11.3561ZM10.0075 2.73749H5.96175V3.43925H10.0075V2.73749ZM11.3561 4.84276H4.61317V12.5621C4.61317 12.9496 4.91506 13.2638 5.28746 13.2638H10.6818C11.0542 13.2638 11.3561 12.9496 11.3561 12.5621V4.84276Z" fill="#7D879C"/>
  <path d="M5.96175 6.24626H7.31032V11.8603H5.96175V6.24626Z" fill="#7D879C"/>
  <path d="M8.6589 6.24626H10.0075V11.8603H8.6589V6.24626Z" fill="#7D879C"/>
</svg>