<svg xmlns="http://www.w3.org/2000/svg" width="23" height="23" viewBox="0 0 23 23" fill="none">
  <path d="M7.45859 9.38193H3.30078V5.22412" stroke="#5F6C72" stroke-width="1.38594" stroke-linecap="round" stroke-linejoin="round"/>
  <path d="M17.0216 6.44568C16.3144 5.73748 15.4745 5.17565 14.55 4.79231C13.6255 4.40898 12.6345 4.21167 11.6337 4.21167C10.6329 4.21167 9.64191 4.40898 8.71741 4.79231C7.79292 5.17565 6.95307 5.73748 6.2459 6.44568L3.30078 9.38214" stroke="#5F6C72" stroke-width="1.38594" stroke-linecap="round" stroke-linejoin="round"/>
  <path d="M15.8086 14.2847H19.9664V18.4425" stroke="#5F6C72" stroke-width="1.38594" stroke-linecap="round" stroke-linejoin="round"/>
  <path d="M6.24609 17.2211C6.95326 17.9293 7.79311 18.4912 8.71761 18.8745C9.64211 19.2578 10.6331 19.4551 11.6339 19.4551C12.6347 19.4551 13.6257 19.2578 14.5502 18.8745C15.4747 18.4912 16.3146 17.9293 17.0218 17.2211L19.9669 14.2847" stroke="#5F6C72" stroke-width="1.38594" stroke-linecap="round" stroke-linejoin="round"/>
</svg>