<svg xmlns="http://www.w3.org/2000/svg" width="27" height="27" viewBox="0 0 27 27" fill="none">
  <path d="M16.6582 4.94019C18.0295 5.30821 19.2799 6.03045 20.2838 7.03442C21.2878 8.03839 22.0101 9.28876 22.3781 10.6601" stroke="#364253" stroke-width="1.38594" stroke-linecap="round" stroke-linejoin="round"/>
  <path d="M15.8193 8.06299C16.6441 8.28203 17.3963 8.7152 17.9997 9.3186C18.6031 9.92201 19.0363 10.6742 19.2553 11.499" stroke="#364253" stroke-width="1.38594" stroke-linecap="round" stroke-linejoin="round"/>
  <path d="M9.89734 13.5098C10.7293 15.2278 12.1185 16.6134 13.8386 17.4409C13.9655 17.501 14.1058 17.527 14.2458 17.5164C14.3858 17.5058 14.5206 17.4589 14.637 17.3803L17.1634 15.6926C17.275 15.6169 17.404 15.5707 17.5383 15.5584C17.6726 15.546 17.8079 15.5679 17.9314 15.6219L22.661 17.6532C22.8226 17.7204 22.9576 17.839 23.0453 17.9905C23.1329 18.1421 23.1683 18.3183 23.146 18.4919C22.9961 19.6619 22.4251 20.7372 21.5397 21.5166C20.6543 22.2959 19.5152 22.726 18.3357 22.7263C14.6906 22.7263 11.1948 21.2783 8.61729 18.7008C6.03981 16.1233 4.5918 12.6275 4.5918 8.98239C4.59206 7.80284 5.02212 6.6638 5.80149 5.77841C6.58086 4.89301 7.65614 4.32194 8.82612 4.17203C8.99978 4.14973 9.17595 4.18513 9.32752 4.27278C9.47908 4.36043 9.59763 4.49547 9.6649 4.65711L11.6962 9.39673C11.749 9.51835 11.7711 9.6511 11.7605 9.78327C11.7499 9.91544 11.707 10.043 11.6355 10.1547L9.94787 12.7215C9.87273 12.8376 9.82863 12.9711 9.81979 13.1091C9.81094 13.2471 9.83764 13.385 9.89734 13.5098V13.5098Z" stroke="#364253" stroke-width="1.38594" stroke-linecap="round" stroke-linejoin="round"/>
</svg>