<svg xmlns="http://www.w3.org/2000/svg" width="23" height="23" viewBox="0 0 23 23" fill="none">
  <path d="M19.9721 12.5264H17.2002C16.8327 12.5264 16.4801 12.6724 16.2202 12.9323C15.9603 13.1922 15.8143 13.5447 15.8143 13.9123V17.3771C15.8143 17.7447 15.9603 18.0972 16.2202 18.3571C16.4801 18.6171 16.8327 18.7631 17.2002 18.7631H18.5862C18.9538 18.7631 19.3063 18.6171 19.5662 18.3571C19.8261 18.0972 19.9721 17.7447 19.9721 17.3771V12.5264ZM19.9721 12.5264C19.9722 11.4285 19.7548 10.3415 19.3326 9.32802C18.9103 8.31458 18.2916 7.39478 17.5121 6.62169C16.7325 5.8486 15.8076 5.23753 14.7907 4.82373C13.7738 4.40993 12.685 4.20159 11.5872 4.21074C10.4901 4.20274 9.40223 4.41192 8.38632 4.82624C7.37041 5.24055 6.44654 5.85181 5.66793 6.62479C4.88931 7.39776 4.27136 8.31717 3.84968 9.33004C3.42799 10.3429 3.21091 11.4292 3.21094 12.5264V17.3771C3.21094 17.7447 3.35696 18.0972 3.61687 18.3571C3.87678 18.6171 4.2293 18.7631 4.59687 18.7631H5.98281C6.35039 18.7631 6.7029 18.6171 6.96282 18.3571C7.22273 18.0972 7.36875 17.7447 7.36875 17.3771V13.9123C7.36875 13.5447 7.22273 13.1922 6.96282 12.9323C6.7029 12.6724 6.35039 12.5264 5.98281 12.5264H3.21094" stroke="#5F6C72" stroke-width="1.38594" stroke-linecap="round" stroke-linejoin="round"/>
</svg>