<svg xmlns="http://www.w3.org/2000/svg" width="23" height="23" viewBox="0 0 23 23" fill="none">
  <path d="M5.50293 20.842H17.9764" stroke="#5F6C72" stroke-width="1.38594" stroke-linecap="round" stroke-linejoin="round"/>
  <path d="M18.6699 9.75439C18.6699 15.9911 11.7402 20.8419 11.7402 20.8419C11.7402 20.8419 4.81055 15.9911 4.81055 9.75439C4.81055 7.91653 5.54064 6.15393 6.8402 4.85437C8.13977 3.5548 9.90237 2.82471 11.7402 2.82471C13.5781 2.82471 15.3407 3.5548 16.6403 4.85437C17.9398 6.15393 18.6699 7.91653 18.6699 9.75439V9.75439Z" stroke="#5F6C72" stroke-width="1.38594" stroke-linecap="round" stroke-linejoin="round"/>
  <path d="M11.7396 12.5264C13.2705 12.5264 14.5115 11.2854 14.5115 9.75454C14.5115 8.22368 13.2705 6.98267 11.7396 6.98267C10.2088 6.98267 8.96777 8.22368 8.96777 9.75454C8.96777 11.2854 10.2088 12.5264 11.7396 12.5264Z" stroke="#5F6C72" stroke-width="1.38594" stroke-linecap="round" stroke-linejoin="round"/>
</svg>