<svg xmlns="http://www.w3.org/2000/svg" width="31" height="30" viewBox="0 0 31 30" fill="none">
  <path d="M15.2873 25.0407C15.2873 25.0407 3.73779 18.573 3.73779 10.7194C3.73779 9.33098 4.21882 7.98549 5.09904 6.9118C5.97925 5.8381 7.20428 5.10254 8.5657 4.83026C9.92712 4.55798 11.3408 4.76579 12.5663 5.41835C13.7918 6.0709 14.7533 7.12789 15.2873 8.40947C15.8213 7.12789 16.7828 6.0709 18.0083 5.41835C19.2337 4.76579 20.6474 4.55798 22.0088 4.83026C23.3703 5.10254 24.5953 5.8381 25.4755 6.9118C26.3557 7.98549 26.8367 9.33098 26.8367 10.7194C26.8367 18.573 15.2873 25.0407 15.2873 25.0407Z" stroke="white" stroke-width="1.84792" stroke-linecap="round" stroke-linejoin="round"/>
</svg>