<svg xmlns="http://www.w3.org/2000/svg" width="30" height="45" viewBox="0 0 30 45" fill="none">
  <g clip-path="url(#clip0_193_16118)">
    <path d="M11.1424 0C13.4203 1.68262 16.0475 2.87568 17.9616 5.07686C18.4394 5.63232 18.742 6.31609 18.8312 7.04233C19.1951 9.79109 19.6318 12.5471 17.7105 14.9804C17.5897 15.0865 17.5019 15.2248 17.4574 15.379C17.4129 15.5332 17.4136 15.6969 17.4594 15.8507C17.8524 16.2133 18.3546 15.7709 18.9149 16.1335V44.35C18.1035 44.35 17.6705 43.7335 17.1537 43.3745C15.3707 42.1343 13.413 41.1226 11.8883 39.5306C10.6075 38.1961 10.3746 36.6295 10.7567 34.8164C12.9982 34.4537 14.2609 33.2135 14.3955 30.8637C12.8635 30.9108 11.8156 31.6252 10.844 32.8473C10.5353 32.0136 10.5148 31.1011 10.7858 30.2545C12.7835 29.7178 14.3591 28.8402 14.3846 26.4178C12.809 26.2764 11.8883 27.2809 10.7821 28.0714C10.5291 27.3035 10.5291 26.475 10.7821 25.707C12.8563 25.0289 14.6429 23.9737 14.3846 21.2648C13.1547 21.9212 11.7319 22.1496 10.8549 23.5929C10.5677 22.7491 10.5248 21.8417 10.7312 20.9747C13.0127 20.554 14.4028 19.332 14.4028 16.7681C13.0782 17.3085 11.8301 17.7436 10.7639 19.0237V0.242964L11.1424 0Z" fill="#A6E66E"/>
    <path d="M29.3071 37.304C28.4556 37.304 28.0226 36.7746 27.5095 36.4446C26.0977 35.5344 24.6749 34.6314 23.3285 33.6306C22.614 33.1086 22.0257 32.4338 21.607 31.6557C21.1883 30.8776 20.9497 30.0159 20.9087 29.1339C20.5848 25.3335 20.996 21.5186 20.7522 17.7436C20.7086 17.0691 20.7122 16.3801 21.087 15.8579C21.5091 15.43 22.0476 15.7238 22.6917 15.2669C20.3774 12.6631 20.8214 9.53 21.0579 6.33521C22.1095 6.48026 22.7354 7.18377 23.4741 7.66607C24.5657 8.39133 25.6574 9.1166 26.749 9.87087C28.361 11.0095 29.4054 12.5435 29.4199 14.5343C29.4636 21.8776 29.4381 29.2173 29.4199 36.557C29.4003 36.8084 29.3626 37.058 29.3071 37.304Z" fill="#A6E66E"/>
    <path d="M5.04362 26.0877C4.70521 28.3723 5.33473 29.1556 8.43866 30.2689C8.87896 31.0413 8.6861 31.8862 8.63879 32.9705C7.48892 31.9623 6.59741 30.7947 5.03998 30.9651C4.79982 32.9632 5.32381 33.5652 8.49324 34.9251C8.79198 35.7517 8.81368 36.6525 8.5551 37.4925C8.41319 37.5324 8.30402 37.6049 8.24944 37.5759C6.01737 36.3722 3.91208 34.9483 1.96516 33.3258C0.44049 32.0748 0.0183849 30.2072 0.000190665 28.2853C0.000190665 21.446 0.000190665 14.608 0.000190665 7.77112C0.000190665 7.37585 -0.076225 6.94431 0.364075 6.5708C1.36112 6.71585 2.07797 7.452 2.87123 8.02133C4.35588 9.05484 5.98244 9.91065 7.23784 11.2379C8.7516 12.8335 9.26831 16.1262 8.46049 19.0671C7.60173 17.8632 6.38271 17.3084 5.10912 16.8478C4.6106 18.9547 5.50212 20.0898 8.38408 20.9746C8.8826 21.7579 8.7334 22.6354 8.55146 23.9337C7.61992 22.3308 6.23716 21.9029 4.99268 21.2538C4.80346 23.6363 5.32745 24.3035 8.42774 25.638C8.79163 26.6969 8.79163 26.8057 8.50052 28.4376C7.64175 27.0269 6.3063 26.6208 5.04362 26.0877Z" fill="#A6E66E"/>
  </g>
  <defs>
    <clipPath id="clip0_193_16118">
      <rect width="29.4455" height="44.35" fill="white"/>
    </clipPath>
  </defs>
</svg>