<svg width="22" height="22" viewBox="0 0 22 22" fill="none" xmlns="http://www.w3.org/2000/svg">
<path d="M16.9818 6.34833L16.9828 6.34932C17.1725 6.53892 17.3229 6.76404 17.4256 7.01181C17.5283 7.25958 17.5811 7.52515 17.5811 7.79334C17.5811 8.06153 17.5283 8.3271 17.4256 8.57487C17.3229 8.82265 17.1725 9.04776 16.9828 9.23735L16.9823 9.23785L16.0106 10.2095L11.0003 15.2199L5.98993 10.2095L5.01826 9.23785L2.89694 11.3592L5.01826 9.23785C4.63515 8.85474 4.41992 8.33514 4.41992 7.79334C4.41992 7.25154 4.63515 6.73194 5.01826 6.34883C5.40137 5.96572 5.92098 5.75049 6.46277 5.75049C7.00457 5.75049 7.52418 5.96572 7.90729 6.34883L10.0286 4.22751L7.90729 6.34883L8.87895 7.32049C10.0505 8.49207 11.95 8.49207 13.1216 7.32049L14.0933 6.34883L14.0938 6.34833C14.2834 6.15864 14.5085 6.00817 14.7562 5.9055C15.004 5.80284 15.2696 5.75 15.5378 5.75C15.806 5.75 16.0715 5.80284 16.3193 5.9055C16.5671 6.00817 16.7922 6.15864 16.9818 6.34833Z" stroke="#1A985B" stroke-width="6" stroke-linecap="round" stroke-linejoin="round"/>
</svg>
