<svg width="25" height="26" viewBox="0 0 25 26" fill="none" xmlns="http://www.w3.org/2000/svg">
<g clip-path="url(#clip0_1741_4214)">
<path d="M18.645 25.1259H1.5056C1.29305 25.1259 1.11914 24.952 1.11914 24.7394V11.4646C1.11914 11.252 1.29305 11.0781 1.5056 11.0781H16.0751C16.2876 11.0781 16.4615 11.252 16.4615 11.4646C16.4615 11.6771 16.2876 11.851 16.0751 11.851H1.87273V24.3723H18.2586V14.6529C18.2586 14.4403 18.4325 14.2664 18.645 14.2664C18.8576 14.2664 19.0315 14.4403 19.0315 14.6529V24.7394C19.0122 24.952 18.8383 25.1259 18.645 25.1259Z" fill="#319848"/>
<path d="M11.2641 24.9303H8.86803C8.77142 24.9303 8.6748 24.853 8.6748 24.7371V11.4622C8.6748 11.3656 8.7521 11.269 8.86803 11.269H11.2641C11.3607 11.269 11.4573 11.3463 11.4573 11.4622V24.7371C11.4573 24.853 11.38 24.9303 11.2641 24.9303ZM9.06126 24.5438H11.0902V11.6554H9.06126V24.5438ZM21.6212 18.7276C21.6018 18.7276 21.6018 18.7276 21.5825 18.7276C21.4859 18.7083 21.3893 18.6697 21.3313 18.5924L8.84871 3.11471C8.71345 2.96013 8.7521 2.70893 8.90668 2.57367L10.781 1.04716C10.8583 0.989193 10.9549 0.950547 11.0515 0.96987C11.1481 0.989193 11.2448 1.02784 11.3027 1.10513L23.766 16.5828C23.9013 16.7374 23.8626 16.9886 23.708 17.1238L21.8337 18.6503C21.7951 18.7083 21.6985 18.7276 21.6212 18.7276ZM9.6796 2.92149L21.6791 17.8001L22.9738 16.7567L10.9742 1.87805L9.6796 2.92149Z" fill="#319848"/>
<path d="M16.1328 11.7326H16.1135C16.0555 11.7326 16.0168 11.694 15.9782 11.6553L14.471 9.78099C14.413 9.7037 14.413 9.58776 14.4903 9.51047L16.3647 7.98396C16.4033 7.94531 16.4613 7.94531 16.4999 7.94531C16.5579 7.94531 16.5965 7.98396 16.6352 8.0226L18.1424 9.89693C18.2003 9.97422 18.2003 10.0902 18.123 10.1674L16.268 11.694C16.2294 11.7133 16.1907 11.7326 16.1328 11.7326ZM14.8961 9.7037L16.1714 11.2882L17.7559 9.99354L16.4806 8.40906L14.8961 9.7037Z" fill="#319848"/>
<path d="M17.5439 9.12469C16.8483 9.12469 16.1333 8.27448 15.3218 7.25037C15.2638 7.17307 15.2058 7.09578 15.1479 7.03781C14.4522 6.16828 14.4909 4.97026 15.2252 4.37125C15.4957 4.13938 15.8435 4.02344 16.2299 4.02344C16.829 4.02344 17.428 4.3326 17.8531 4.85432C18.51 5.66589 18.8385 8.2938 18.027 8.97011C17.8917 9.06672 17.7178 9.12469 17.5439 9.12469ZM16.2299 4.79635C16.0367 4.79635 15.8435 4.85432 15.7082 4.97026C15.2831 5.31807 15.3024 6.03302 15.7275 6.57406C15.7855 6.63203 15.8435 6.70932 15.9015 6.78661C16.2493 7.21172 17.1574 8.37109 17.5246 8.37109C17.8724 8.10057 17.7371 5.95573 17.2347 5.3374C16.9835 4.98958 16.5971 4.79635 16.2299 4.79635Z" fill="#319848"/>
<path d="M20.4229 12.4116C19.8239 12.4116 19.2249 12.1024 18.7998 11.5807C18.7418 11.5227 18.6839 11.4454 18.6259 11.3681C17.8723 10.4406 17.196 9.55177 17.254 8.89479C17.2733 8.68224 17.3699 8.48901 17.5438 8.37307C17.737 8.21849 18.0269 8.1412 18.3747 8.1412C19.3215 8.1412 20.964 8.72088 21.505 9.39719C22.2006 10.2667 22.162 11.4647 21.4277 12.0637C21.1379 12.2956 20.8094 12.4116 20.4229 12.4116ZM18.3747 8.89479C18.1621 8.89479 18.0462 8.93344 18.0076 8.95276C17.9496 9.08802 18.1042 9.55177 19.2056 10.8851C19.2636 10.9623 19.3215 11.0396 19.3795 11.0976C19.65 11.4261 20.0365 11.6386 20.4036 11.6386C20.5968 11.6386 20.7901 11.5807 20.9253 11.4647C21.3504 11.1169 21.3311 10.402 20.906 9.86094C20.5582 9.43583 19.1863 8.89479 18.3747 8.89479ZM5.27376 6.63401C5.31241 6.63401 5.37038 6.63401 5.40902 6.65333C5.67954 6.69198 5.89209 6.86588 6.00803 7.07844C6.16262 6.94318 6.35584 6.86588 6.5684 6.86588C6.60704 6.86588 6.66501 6.86588 6.70366 6.88521C7.16741 6.9625 7.45725 7.3876 7.37996 7.85135C7.26402 8.50833 5.58293 9.55177 5.58293 9.55177C5.58293 9.55177 4.34626 7.90932 4.44288 7.34896C4.52017 6.92385 4.86798 6.63401 5.27376 6.63401ZM5.27376 5.86109C4.50085 5.86109 3.82454 6.42146 3.70861 7.19437C3.61199 7.77406 4.0371 8.70156 4.98392 9.97687C5.1385 10.1701 5.37038 10.286 5.60225 10.286C5.73751 10.286 5.87277 10.2474 6.00803 10.1701C6.7423 9.70635 8.01762 8.8175 8.15288 7.94797C8.30746 7.07844 7.70845 6.24755 6.83892 6.11229C6.7423 6.09297 6.66501 6.09297 6.5684 6.09297C6.43314 6.09297 6.29788 6.11229 6.16262 6.15094C5.96939 6.035 5.75683 5.93839 5.54428 5.89974C5.44767 5.88042 5.37038 5.86109 5.27376 5.86109ZM5.91142 1.33953C6.20126 1.33953 6.4911 1.51344 6.62637 1.80328C6.89689 2.38297 6.12397 4.08339 6.12397 4.08339C6.12397 4.08339 4.28829 3.44573 4.07574 2.98198C3.90183 2.5762 4.07574 2.11245 4.4622 1.93854C4.55881 1.8999 4.67475 1.86125 4.79069 1.86125C4.92595 1.86125 5.04189 1.8999 5.15782 1.95786C5.21579 1.72599 5.37038 1.53276 5.60225 1.41682C5.69887 1.37818 5.79548 1.33953 5.91142 1.33953ZM5.91142 0.585938C5.67954 0.585938 5.46699 0.624583 5.27376 0.721198C5.08053 0.817812 4.90663 0.93375 4.77137 1.08833C4.55881 1.08833 4.34626 1.1463 4.15303 1.22359C3.38012 1.57141 3.0323 2.49891 3.38012 3.27182C3.61199 3.77422 4.44288 4.29594 5.87277 4.77901C5.95006 4.79833 6.04668 4.81766 6.12397 4.81766C6.41381 4.81766 6.68433 4.64375 6.81959 4.37323C7.16741 3.61964 7.68913 2.24771 7.32199 1.47479C7.07079 0.93375 6.51043 0.585938 5.91142 0.585938Z" fill="#319848"/>
</g>
<defs>
<clipPath id="clip0_1741_4214">
<rect width="24.7333" height="24.7333" fill="white" transform="translate(0.133789 0.488281)"/>
</clipPath>
</defs>
</svg>
