<svg width="25" height="26" viewBox="0 0 25 26" fill="none" xmlns="http://www.w3.org/2000/svg">
<path d="M20.5191 15.9304C20.5192 15.5908 20.385 15.2649 20.1458 15.0238C19.9066 14.7826 19.5819 14.6458 19.2422 14.643H15.4302C15.3019 14.6455 15.1773 14.6 15.0808 14.5155C14.9843 14.4309 14.9229 14.3133 14.9085 14.1858C14.8441 13.6054 14.9167 13.0181 15.1206 12.4709C15.3383 11.8902 15.4488 11.2749 15.4469 10.6548V10.2932C15.4473 9.74542 15.2302 9.21984 14.8432 8.83204C14.4563 8.44424 13.9312 8.22595 13.3834 8.22516C13.3144 8.22522 13.2477 8.25009 13.1956 8.29523C13.1434 8.34038 13.1092 8.40277 13.0992 8.47104L12.9003 9.77693C12.6923 11.1218 12.1692 12.3984 11.3738 13.5025C11.1572 13.7976 10.8738 14.0373 10.5469 14.2019C10.2199 14.3666 9.85863 14.4515 9.49258 14.4498H8.82879V13.378C8.82958 13.3408 8.82284 13.3039 8.80899 13.2695C8.79513 13.235 8.77444 13.2037 8.74816 13.1775C8.72189 13.1513 8.69057 13.1306 8.6561 13.1168C8.62162 13.103 8.58471 13.0963 8.54759 13.0972H4.77098C4.7334 13.0962 4.696 13.1027 4.66098 13.1163C4.62595 13.13 4.594 13.1505 4.567 13.1766C4.54 13.2028 4.5185 13.234 4.50375 13.2686C4.48901 13.3032 4.48132 13.3404 4.48113 13.378V23.0415C4.48087 23.1191 4.51111 23.1937 4.56532 23.2492C4.61954 23.3047 4.69339 23.3367 4.77098 23.3383H8.54759C8.58556 23.3374 8.62297 23.3289 8.65767 23.3135C8.69237 23.298 8.72368 23.2758 8.7498 23.2483C8.77593 23.2207 8.79635 23.1882 8.8099 23.1528C8.82346 23.1173 8.82987 23.0795 8.82879 23.0415V22.0823H9.4191C10.4624 22.0894 11.483 22.3875 12.3661 22.943C13.3552 23.5566 14.469 23.6282 15.6186 23.6282H18.6928C18.95 23.6264 19.2013 23.5513 19.4172 23.4115C19.633 23.2717 19.8045 23.0732 19.9113 22.8393C20.0181 22.6054 20.0559 22.3458 20.0201 22.0911C19.9844 21.8365 19.8766 21.5973 19.7095 21.4018C19.9241 21.3085 20.1106 21.1609 20.2508 20.9735C20.391 20.7862 20.4799 20.5655 20.5088 20.3333C20.5378 20.1011 20.5057 19.8653 20.4158 19.6493C20.3258 19.4333 20.1812 19.2444 19.996 19.1013C20.1575 18.9732 20.2882 18.8106 20.3787 18.6254C20.4692 18.4402 20.5172 18.2372 20.519 18.0311C20.5209 17.825 20.4766 17.6211 20.3894 17.4343C20.3023 17.2475 20.1745 17.0826 20.0154 16.9516C20.1721 16.8315 20.299 16.6769 20.3864 16.4998C20.4738 16.3227 20.5192 16.1279 20.5191 15.9304ZM8.2491 22.7586H5.06082V13.6769H8.2491V22.7586ZM19.1742 19.3771C19.3792 19.3771 19.5758 19.4586 19.7208 19.6035C19.8657 19.7485 19.9471 19.9451 19.9471 20.1501C19.9471 20.355 19.8657 20.5516 19.7208 20.6966C19.5758 20.8415 19.3792 20.923 19.1742 20.923H17.0318C16.9549 20.923 16.8812 20.9535 16.8268 21.0079C16.7725 21.0622 16.742 21.1359 16.742 21.2128C16.742 21.2897 16.7725 21.3634 16.8268 21.4178C16.8812 21.4721 16.9549 21.5027 17.0318 21.5027H18.6928C18.8978 21.5027 19.0944 21.5841 19.2394 21.729C19.3843 21.874 19.4658 22.0706 19.4658 22.2756C19.4658 22.4806 19.3843 22.6772 19.2394 22.8221C19.0944 22.9671 18.8978 23.0485 18.6928 23.0485H15.6186C14.5559 23.0485 13.531 22.9836 12.6719 22.4504C11.697 21.8379 10.5704 21.5097 9.4191 21.5027H8.82879V15.0295H9.49258C9.95036 15.031 10.402 14.9242 10.8107 14.7178C11.2193 14.5115 11.5734 14.2115 11.8439 13.8422C12.6935 12.6613 13.2522 11.2965 13.4744 9.85886L13.629 8.82219C13.9759 8.88162 14.2905 9.06195 14.5172 9.33121C14.7438 9.60048 14.8678 9.94129 14.8672 10.2932V10.6548C14.8691 11.207 14.7711 11.7549 14.578 12.2722C14.3416 12.9025 14.2567 13.5796 14.3301 14.2487C14.3603 14.5185 14.4895 14.7675 14.6928 14.9474C14.896 15.1273 15.1588 15.2254 15.4302 15.2227H19.2422C19.428 15.2227 19.6062 15.2965 19.7375 15.4279C19.8689 15.5592 19.9427 15.7374 19.9427 15.9232C19.9427 16.1089 19.8689 16.2871 19.7375 16.4185C19.6062 16.5498 19.428 16.6236 19.2422 16.6236H17.6883C17.6115 16.6236 17.5377 16.6542 17.4834 16.7085C17.429 16.7629 17.3985 16.8366 17.3985 16.9135C17.3985 16.9903 17.429 17.0641 17.4834 17.1184C17.5377 17.1728 17.6115 17.2033 17.6883 17.2033H19.1415C19.3529 17.2033 19.5557 17.2873 19.7051 17.4368C19.8546 17.5862 19.9386 17.789 19.9386 18.0004C19.9386 18.2118 19.8546 18.4145 19.7051 18.564C19.5557 18.7135 19.3529 18.7974 19.1415 18.7974H17.6883C17.6503 18.7974 17.6126 18.8049 17.5774 18.8195C17.5423 18.8341 17.5103 18.8554 17.4834 18.8823C17.4565 18.9093 17.4351 18.9412 17.4206 18.9764C17.406 19.0115 17.3985 19.0492 17.3985 19.0873C17.3985 19.1254 17.406 19.163 17.4206 19.1982C17.4351 19.2334 17.4565 19.2653 17.4834 19.2922C17.5103 19.3192 17.5423 19.3405 17.5774 19.3551C17.6126 19.3696 17.6503 19.3771 17.6883 19.3771H19.1744H19.1742ZM9.67518 5.47787C9.69189 5.5293 9.72266 5.57503 9.764 5.60988C9.80535 5.64474 9.85562 5.66733 9.90913 5.67511L11.5199 5.90921L12.2402 7.36877C12.2641 7.41728 12.3012 7.45813 12.3471 7.48669C12.393 7.51525 12.446 7.53039 12.5001 7.53039C12.5542 7.53039 12.6072 7.51525 12.6532 7.48669C12.6991 7.45813 12.7362 7.41728 12.7601 7.36877L13.4804 5.90906L15.0911 5.67497C15.1447 5.66719 15.195 5.6446 15.2363 5.60974C15.2777 5.57489 15.3084 5.52915 15.3251 5.47772C15.3419 5.42628 15.3439 5.3712 15.3309 5.31869C15.3179 5.26618 15.2905 5.21834 15.2518 5.18059L14.0863 4.0444L14.3614 2.4406C14.3705 2.3873 14.3646 2.33249 14.3442 2.28239C14.3238 2.2323 14.2898 2.1889 14.2461 2.15711C14.2023 2.12532 14.1505 2.10641 14.0966 2.10251C14.0426 2.09861 13.9887 2.10989 13.9408 2.13506L12.5001 2.89227L11.0595 2.13486C11.0116 2.10969 10.9576 2.09842 10.9037 2.10232C10.8498 2.10621 10.798 2.12512 10.7542 2.15691C10.7105 2.1887 10.6765 2.2321 10.6561 2.2822C10.6357 2.3323 10.6298 2.3871 10.6389 2.44041L10.914 4.0444L9.74846 5.18074C9.70974 5.21849 9.68236 5.26633 9.66941 5.31884C9.65646 5.37135 9.65845 5.42644 9.67518 5.47787ZM11.4277 4.35357C11.4614 4.32076 11.4865 4.28027 11.501 4.23558C11.5156 4.19088 11.519 4.14333 11.511 4.09701L11.3096 2.92126L12.3653 3.47626C12.4069 3.49815 12.4531 3.50959 12.5001 3.50959C12.5471 3.50959 12.5934 3.49815 12.635 3.47626L13.6907 2.92126L13.4891 4.09682C13.4812 4.14317 13.4846 4.19077 13.4991 4.2355C13.5137 4.28023 13.5389 4.32075 13.5726 4.35357L14.4266 5.1859L13.2462 5.35744C13.1997 5.3642 13.1556 5.38216 13.1176 5.40978C13.0795 5.4374 13.0488 5.47385 13.028 5.51599L12.5001 6.58537L11.9723 5.51579C11.9515 5.47365 11.9208 5.4372 11.8827 5.40958C11.8447 5.38196 11.8005 5.364 11.754 5.35725L10.5736 5.1859L11.4277 4.35357ZM2.96245 8.05715C2.97916 8.10857 3.00993 8.1543 3.05127 8.18915C3.09262 8.22401 3.14289 8.2466 3.1964 8.25438L4.80716 8.48867L5.52747 9.94804C5.5514 9.99655 5.58842 10.0374 5.63436 10.066C5.6803 10.0945 5.73331 10.1097 5.78741 10.1097C5.8415 10.1097 5.89452 10.0945 5.94046 10.066C5.98639 10.0374 6.02342 9.99655 6.04735 9.94804L6.76766 8.48867L8.37842 8.25458C8.43197 8.24681 8.48227 8.22421 8.52364 8.18933C8.56501 8.15445 8.59579 8.10868 8.61249 8.05722C8.6292 8.00575 8.63116 7.95063 8.61817 7.89811C8.60517 7.84558 8.57772 7.79774 8.53894 7.76001L7.37353 6.62401L7.64864 5.01982C7.65778 4.96652 7.65183 4.91172 7.63145 4.86162C7.61107 4.81152 7.57709 4.76812 7.53333 4.73633C7.48957 4.70454 7.4378 4.68563 7.38385 4.68173C7.32991 4.67783 7.27595 4.68911 7.22808 4.71428L5.78741 5.47169L4.34669 4.71414C4.29882 4.68896 4.24486 4.67769 4.19092 4.68159C4.13697 4.68548 4.0852 4.7044 4.04144 4.73618C3.99768 4.76797 3.96369 4.81137 3.94332 4.86147C3.92294 4.91157 3.91699 4.96637 3.92613 5.01968L4.20129 6.62401L3.03573 7.76001C2.99701 7.79777 2.96962 7.8456 2.95667 7.89811C2.94372 7.95063 2.94572 8.00571 2.96245 8.05715ZM4.71508 6.93265C4.74872 6.89983 4.77388 6.85932 4.7884 6.81462C4.80291 6.76992 4.80635 6.72236 4.79841 6.67604L4.59678 5.50048L5.65253 6.05548C5.69412 6.07738 5.74041 6.08881 5.78741 6.08881C5.83441 6.08881 5.8807 6.07738 5.92228 6.05548L6.97804 5.50048L6.7764 6.67604C6.76847 6.72236 6.77191 6.76992 6.78642 6.81462C6.80094 6.85932 6.8261 6.89983 6.85973 6.93265L7.71386 7.76518L6.53347 7.93671C6.48697 7.94348 6.44281 7.96144 6.4048 7.98906C6.36679 8.01668 6.33606 8.05312 6.31526 8.09526L5.78741 9.16498L5.25956 8.0954C5.23875 8.05326 5.20802 8.01681 5.17 7.98919C5.13198 7.96157 5.08781 7.94361 5.0413 7.93686L3.86091 7.76532L4.71508 6.93265ZM22.0378 8.05715C22.0546 8.00571 22.0566 7.95063 22.0436 7.89811C22.0307 7.8456 22.0033 7.79777 21.9646 7.76001L20.799 6.62401L21.0743 5.01982C21.0835 4.96652 21.0775 4.91172 21.0572 4.86162C21.0368 4.81152 21.0028 4.76812 20.959 4.73633C20.9153 4.70454 20.8635 4.68563 20.8096 4.68173C20.7556 4.67783 20.7017 4.68911 20.6538 4.71428L19.2131 5.47169L17.7722 4.71414C17.7243 4.68896 17.6704 4.67769 17.6164 4.68159C17.5625 4.68548 17.5107 4.7044 17.467 4.73618C17.4232 4.76797 17.3892 4.81137 17.3688 4.86147C17.3485 4.91157 17.3425 4.96637 17.3516 5.01968L17.6267 6.62401L16.4613 7.76001C16.4226 7.79776 16.3952 7.84559 16.3823 7.89809C16.3693 7.9506 16.3713 8.00568 16.388 8.05712C16.4047 8.10855 16.4355 8.15428 16.4768 8.18914C16.5182 8.224 16.5684 8.2466 16.622 8.25438L18.2327 8.48848L18.953 9.94804C18.977 9.99655 19.014 10.0374 19.0599 10.066C19.1059 10.0945 19.1589 10.1097 19.213 10.1097C19.2671 10.1097 19.3201 10.0945 19.366 10.066C19.412 10.0374 19.449 9.99655 19.4729 9.94804L20.1931 8.48867L21.8041 8.25438C21.8576 8.24656 21.9078 8.22395 21.9491 8.1891C21.9904 8.15424 22.0211 8.10854 22.0378 8.05715ZM19.9588 7.93671C19.9123 7.94347 19.8681 7.96143 19.8301 7.98905C19.7921 8.01667 19.7613 8.05312 19.7405 8.09526L19.2129 9.16498L18.685 8.0954C18.6642 8.05327 18.6335 8.01682 18.5955 7.9892C18.5575 7.96158 18.5133 7.94362 18.4668 7.93686L17.2864 7.76532L18.1405 6.93279C18.1742 6.89997 18.1993 6.85947 18.2139 6.81477C18.2284 6.77007 18.2318 6.72251 18.2239 6.67618L18.0222 5.50063L19.078 6.05563C19.1196 6.07752 19.1659 6.08896 19.2129 6.08896C19.2599 6.08896 19.3062 6.07752 19.3477 6.05563L20.4035 5.50063L20.2019 6.67618C20.1939 6.72251 20.1974 6.77007 20.2119 6.81477C20.2264 6.85947 20.2516 6.89997 20.2852 6.93279L21.1394 7.76532L19.9588 7.93671Z" fill="#319848"/>
</svg>
