<svg width="25" height="26" viewBox="0 0 25 26" fill="none" xmlns="http://www.w3.org/2000/svg">
<g clip-path="url(#clip0_1741_18825)">
<path d="M1.11328 24.2182L5.74532 14.6562L11.5464 20.6035L1.11328 24.2182Z" stroke="#319848" stroke-width="0.7" stroke-miterlimit="10" stroke-linecap="round" stroke-linejoin="round"/>
<path d="M4.69922 16.8125L7.89102 16.8552" stroke="#319848" stroke-width="0.7" stroke-miterlimit="10" stroke-linecap="round" stroke-linejoin="round"/>
<path d="M3.72461 19.1797L9.97538 19.2634" stroke="#319848" stroke-width="0.7" stroke-miterlimit="10" stroke-linecap="round" stroke-linejoin="round"/>
<path d="M2.41992 21.543L8.3567 21.6224" stroke="#319848" stroke-width="0.7" stroke-miterlimit="10" stroke-linecap="round" stroke-linejoin="round"/>
<path d="M7.10436 13.7751C7.10436 13.7751 7.88085 11.1132 6.39275 9.63209M5.28598 8.94486C5.23424 8.92592 5.18125 8.90784 5.12695 8.89062L5.28598 8.94486Z" stroke="#319848" stroke-width="0.7" stroke-miterlimit="10" stroke-linecap="round" stroke-linejoin="round"/>
<path d="M12.6562 3.9781L12.789 3.5625" stroke="#319848" stroke-width="0.7" stroke-miterlimit="10" stroke-linecap="round" stroke-linejoin="round"/>
<path d="M10.8379 9.62474L12.0296 5.94141" stroke="#319848" stroke-width="0.7" stroke-miterlimit="10" stroke-linecap="round" stroke-linejoin="round"/>
<path d="M9.33008 14.3649L10.3699 11.0898" stroke="#319848" stroke-width="0.7" stroke-miterlimit="10" stroke-linecap="round" stroke-linejoin="round"/>
<path d="M17.3027 9.16071L21.1556 5.22266" stroke="#319848" stroke-width="0.7" stroke-miterlimit="10" stroke-linecap="round" stroke-linejoin="round"/>
<path d="M16.0059 10.4849L16.3073 10.1797" stroke="#319848" stroke-width="0.7" stroke-miterlimit="10" stroke-linecap="round" stroke-linejoin="round"/>
<path d="M12.0488 14.5648L14.8996 11.6172" stroke="#319848" stroke-width="0.7" stroke-miterlimit="10" stroke-linecap="round" stroke-linejoin="round"/>
<path d="M12.4434 19.1996C12.4434 19.1996 16.6875 18.0548 18.6522 21.3028M19.2726 22.7487C19.2871 22.7985 19.3011 22.8489 19.3148 22.9L19.2726 22.7487Z" stroke="#319848" stroke-width="0.7" stroke-miterlimit="10" stroke-linecap="round" stroke-linejoin="round"/>
<path d="M21.668 14.9863L22.034 14.9102" stroke="#319848" stroke-width="0.7" stroke-miterlimit="10" stroke-linecap="round" stroke-linejoin="round"/>
<path d="M12.4434 16.931L19.472 15.4414" stroke="#319848" stroke-width="0.7" stroke-miterlimit="10" stroke-linecap="round" stroke-linejoin="round"/>
<path d="M2.4246 12.761C2.74539 12.761 3.00544 12.5014 3.00544 12.1813C3.00544 11.8611 2.74539 11.6016 2.4246 11.6016C2.1038 11.6016 1.84375 11.8611 1.84375 12.1813C1.84375 12.5014 2.1038 12.761 2.4246 12.761Z" fill="#319848"/>
<path d="M21.1609 19.4251C21.4817 19.4251 21.7418 19.1655 21.7418 18.8453C21.7418 18.5252 21.4817 18.2656 21.1609 18.2656C20.8401 18.2656 20.5801 18.5252 20.5801 18.8453C20.5801 19.1655 20.8401 19.4251 21.1609 19.4251Z" fill="#319848"/>
<path d="M20.6003 10.8619C20.9825 10.8619 21.2923 10.5526 21.2923 10.1712C21.2923 9.78971 20.9825 9.48047 20.6003 9.48047C20.218 9.48047 19.9082 9.78971 19.9082 10.1712C19.9082 10.5526 20.218 10.8619 20.6003 10.8619Z" stroke="#319848" stroke-width="0.7" stroke-miterlimit="10" stroke-linecap="round" stroke-linejoin="round"/>
<path d="M7.29883 4.94141V5.25387" stroke="#319848" stroke-width="0.7" stroke-miterlimit="10" stroke-linecap="round" stroke-linejoin="round"/>
<path d="M7.29883 6.57812V6.89059" stroke="#319848" stroke-width="0.7" stroke-miterlimit="10" stroke-linecap="round" stroke-linejoin="round"/>
<path d="M6.32227 5.91797H6.6354" stroke="#319848" stroke-width="0.7" stroke-miterlimit="10" stroke-linecap="round" stroke-linejoin="round"/>
<path d="M7.96289 5.91797H8.27602" stroke="#319848" stroke-width="0.7" stroke-miterlimit="10" stroke-linecap="round" stroke-linejoin="round"/>
<path d="M23.0684 21.7656V22.0781" stroke="#319848" stroke-width="0.7" stroke-miterlimit="10" stroke-linecap="round" stroke-linejoin="round"/>
<path d="M23.0684 23.4023V23.7149" stroke="#319848" stroke-width="0.7" stroke-miterlimit="10" stroke-linecap="round" stroke-linejoin="round"/>
<path d="M22.0918 22.7422H22.4049" stroke="#319848" stroke-width="0.7" stroke-miterlimit="10" stroke-linecap="round" stroke-linejoin="round"/>
<path d="M23.7324 22.7422H24.0455" stroke="#319848" stroke-width="0.7" stroke-miterlimit="10" stroke-linecap="round" stroke-linejoin="round"/>
<path d="M3.25781 1.83984V2.29729" stroke="#319848" stroke-width="0.7" stroke-miterlimit="10" stroke-linecap="round" stroke-linejoin="round"/>
<path d="M3.25781 4.23438V4.69187" stroke="#319848" stroke-width="0.7" stroke-miterlimit="10" stroke-linecap="round" stroke-linejoin="round"/>
<path d="M1.82812 3.26562H2.28651" stroke="#319848" stroke-width="0.7" stroke-miterlimit="10" stroke-linecap="round" stroke-linejoin="round"/>
<path d="M4.22852 3.26562H4.68686" stroke="#319848" stroke-width="0.7" stroke-miterlimit="10" stroke-linecap="round" stroke-linejoin="round"/>
<path d="M17.002 1.44531V1.90281" stroke="#319848" stroke-width="0.7" stroke-miterlimit="10" stroke-linecap="round" stroke-linejoin="round"/>
<path d="M17.002 3.83984V4.29729" stroke="#319848" stroke-width="0.7" stroke-miterlimit="10" stroke-linecap="round" stroke-linejoin="round"/>
<path d="M15.5723 2.87109H16.0306" stroke="#319848" stroke-width="0.7" stroke-miterlimit="10" stroke-linecap="round" stroke-linejoin="round"/>
<path d="M17.9727 2.87109H18.431" stroke="#319848" stroke-width="0.7" stroke-miterlimit="10" stroke-linecap="round" stroke-linejoin="round"/>
</g>
<defs>
<clipPath id="clip0_1741_18825">
<rect width="24.7333" height="24.7333" fill="white" transform="translate(0.132812 0.488281)"/>
</clipPath>
</defs>
</svg>
