<svg width="137" height="26" viewBox="0 0 137 26" fill="none" xmlns="http://www.w3.org/2000/svg">
<g clip-path="url(#clip0_1116_50143)">
<path d="M59.4521 1.06724C60.0028 0.665845 60.5173 0.742111 61.0117 0.742111C64.4766 0.742111 67.9374 0.742111 71.4022 0.742111C74.7947 0.766195 76.3342 2.07074 76.6276 5.41438C76.8487 8.00741 76.9612 10.6326 75.5061 12.8322C77.1139 16.1357 77.0175 19.4352 76.2337 22.7467C75.8558 24.3523 74.4771 25.1551 73.0181 25.3277C68.5966 25.8536 64.1269 25.4682 59.4803 25.5686L59.4521 1.06724ZM66.5747 15.8347C66.323 17.3784 66.3434 18.9542 66.635 20.4909C67.6118 20.7076 68.4318 20.808 69.4045 20.3464C69.4648 18.8451 69.6939 17.2998 69.2437 15.7223C68.3614 15.5063 67.4357 15.5453 66.5747 15.8347ZM69.3241 10.2472C69.5979 8.73527 69.5815 7.18515 69.2759 5.6793C68.2991 5.34614 67.451 5.27791 66.5185 5.75958C66.4381 7.27285 66.2532 8.78612 66.635 10.2432C67.9333 10.5442 67.9333 10.5442 69.3241 10.2472Z" fill="#102D0A"/>
<path d="M50.5994 25.4843C49.0479 21.8717 47.5366 18.3555 46.0252 14.8392L45.6474 14.9035V25.2274C43.3884 25.8335 41.3344 25.5164 39.1357 25.4683V0.906724C41.1455 0.601661 43.091 0.742151 45.165 0.810388L49.8036 11.8207L50.2457 11.7525V0.810388C52.2535 0.6856 54.2672 0.6856 56.275 0.810388C56.8779 2.09888 56.9784 23.6258 56.3875 25.3759C54.5788 25.7412 52.7016 25.5525 50.5994 25.4843Z" fill="#102D0A"/>
<path d="M36.6001 13.1924C36.6001 15.6008 36.6323 18.0092 36.6001 20.4176C36.5398 23.5806 34.8436 25.3869 31.6641 25.5193C29.1037 25.6237 26.5352 25.6277 23.9788 25.5193C20.8476 25.3829 19.2117 23.8174 19.1554 20.7026C19.0321 15.6396 19.0254 10.578 19.1353 5.51768C19.1996 2.40283 20.9119 0.825336 24.0069 0.757098C26.5687 0.695551 29.1305 0.695551 31.6923 0.757098C34.8114 0.82935 36.5157 2.52726 36.584 5.67021C36.6564 8.17493 36.6001 10.6837 36.6001 13.1924ZM26.3825 6.32047C26.3825 10.9365 26.2378 15.5526 26.4589 20.1125C27.4718 20.4095 28.2435 20.4738 29.16 20.0563V6.22414C28.7226 6.01877 28.2426 5.92038 27.7596 5.93714C27.2766 5.95389 26.8045 6.08529 26.3825 6.32047Z" fill="#102D0A"/>
<path d="M96.2916 13.0686C96.2916 15.477 96.3278 17.8854 96.2916 20.2938C96.2314 23.8221 94.6316 25.4558 91.1065 25.5521C88.7993 25.6123 86.488 25.6203 84.1808 25.5521C80.5271 25.4237 78.859 23.7017 78.859 20.061C78.8322 15.3486 78.8322 10.6348 78.859 5.91974C78.859 2.50786 80.5512 0.805936 83.9316 0.74974C86.3916 0.717629 88.8542 0.716291 91.3195 0.745726C94.5592 0.805936 96.2113 2.43962 96.2876 5.69897C96.3359 8.15553 96.2916 10.6121 96.2916 13.0686ZM88.9078 20.053V6.19269C87.923 5.83144 87.1151 5.75517 86.3031 6.30107V20.1894C87.2236 20.3339 87.9552 20.4343 88.9078 20.053Z" fill="#102D0A"/>
<path d="M0.349361 17.6322C2.51579 17.3462 4.70885 17.3219 6.88109 17.56C7.62069 18.3628 7.1303 19.3181 7.685 20.0486C8.28793 20.45 8.94311 20.3938 9.73898 20.0085C10.0858 18.7524 10.1175 17.4303 9.83142 16.1591C9.22448 15.553 8.64968 15.6573 8.11509 15.6453C6.86099 15.6172 5.59886 15.6774 4.34879 15.5851C1.88884 15.4085 0.309165 13.9032 0.168482 11.4627C0.0519122 9.25793 0.0519122 7.0485 0.168482 4.84369C0.260931 2.56375 1.97727 0.901965 4.42516 0.797601C7.18256 0.677182 9.95201 0.661126 12.7094 0.797601C15.3502 0.930063 16.9299 2.68016 16.9902 5.31734C17.0103 6.34893 17.2113 7.41665 16.6968 8.54859C14.5544 8.91386 12.3798 8.6931 10.3781 8.665C9.51388 7.89833 9.97613 6.94701 9.54202 6.25661C8.90291 5.80705 8.24773 5.85521 7.44785 6.25661C6.92531 7.4889 7.18256 8.8095 7.24687 9.97757C7.8096 10.7442 8.48086 10.7242 9.13203 10.7362C10.3379 10.7362 11.5437 10.7081 12.7496 10.7804C15.4387 10.9449 16.9781 12.5545 17.0224 15.2439C17.0585 17.0984 17.0465 18.9568 17.0224 20.8113C16.9942 23.4485 15.4909 25.2508 12.8863 25.4795C10.0783 25.7334 7.25319 25.7334 4.44526 25.4795C1.78835 25.2106 0.236814 23.4244 0.144365 20.7431C0.0320155 19.7021 0.101376 18.6495 0.349361 17.6322Z" fill="#102D0A"/>
<path d="M129.803 0.845703C131.905 9.01415 133.971 17.0461 136.077 25.2467C133.665 25.8568 131.463 25.4554 129.393 25.5236C128.323 24.5121 128.673 23.1634 127.93 22.0636C126.346 21.7987 124.682 21.9753 123.074 21.9753C122.178 22.9948 122.475 24.3194 121.739 25.3992C119.613 25.7163 117.447 25.5477 114.87 25.4795L121.149 0.845703H129.803ZM125.381 9.96947C124.726 12.3417 124.195 14.3327 124.079 16.3918C125.019 16.8615 125.831 16.7932 126.893 16.5444C126.503 14.421 126.31 12.3417 125.389 9.96947H125.381Z" fill="#102D0A"/>
<path d="M113.296 20.4979C113.654 22.1034 113.513 23.6368 113.401 25.3668H98.874V0.877528C101.205 0.620633 103.42 0.733025 105.884 0.817318V20.0844C108.449 20.6383 110.876 20.0443 113.296 20.4979Z" fill="#102D0A"/>
</g>
<defs>
<clipPath id="clip0_1116_50143">
<rect width="136.001" height="24.9469" fill="white" transform="translate(0.0771484 0.701172)"/>
</clipPath>
</defs>
</svg>
