<svg xmlns="http://www.w3.org/2000/svg" width="137" height="26" viewBox="0 0 137 26" fill="none">
  <g clip-path="url(#clip0_193_16122)">
    <path d="M59.4531 1.06675C60.0038 0.665357 60.5183 0.741623 61.0127 0.741623C64.4775 0.741623 67.9383 0.741623 71.4032 0.741623C74.7957 0.765706 76.3351 2.07025 76.6286 5.41389C76.8496 8.00692 76.9622 10.6321 75.5071 12.8317C77.1149 16.1352 77.0185 19.4347 76.2346 22.7462C75.8568 24.3518 74.4781 25.1546 73.019 25.3272C68.5975 25.8531 64.1278 25.4677 59.4813 25.5681L59.4531 1.06675ZM66.5757 15.8342C66.3239 17.3779 66.3443 18.9537 66.636 20.4904C67.6128 20.7071 68.4327 20.8075 69.4055 20.3459C69.4658 18.8447 69.6949 17.2993 69.2447 15.7218C68.3624 15.5058 67.4367 15.5448 66.5757 15.8342ZM69.3251 10.2467C69.5988 8.73478 69.5825 7.18466 69.2768 5.67881C68.3001 5.34565 67.452 5.27742 66.5195 5.75909C66.4391 7.27236 66.2542 8.78563 66.636 10.2427C67.9343 10.5438 67.9343 10.5438 69.3251 10.2467Z" fill="white"/>
    <path d="M50.5975 25.4841C49.0459 21.8715 47.5346 18.3552 46.0233 14.839L45.6454 14.9032V25.2272C43.3864 25.8333 41.3325 25.5162 39.1338 25.468V0.90648C41.1436 0.601417 43.089 0.741906 45.1631 0.810144L49.8016 11.8205L50.2438 11.7522V0.810144C52.2516 0.685356 54.2652 0.685356 56.2731 0.810144C56.876 2.09863 56.9765 23.6256 56.3856 25.3757C54.5768 25.741 52.6997 25.5523 50.5975 25.4841Z" fill="white"/>
    <path d="M36.5972 13.1929C36.5972 15.6013 36.6294 18.0097 36.5972 20.418C36.5369 23.5811 34.8407 25.3874 31.6612 25.5198C29.1008 25.6242 26.5323 25.6282 23.9759 25.5198C20.8447 25.3833 19.2087 23.8179 19.1524 20.703C19.0292 15.6401 19.0225 10.5785 19.1324 5.51816C19.1967 2.40332 20.909 0.825824 24.004 0.757587C26.5658 0.696039 29.1276 0.696039 31.6894 0.757587C34.8085 0.829838 36.5128 2.52775 36.5811 5.6707C36.6535 8.17542 36.5972 10.6842 36.5972 13.1929ZM26.3796 6.32096C26.3796 10.937 26.2349 15.5531 26.4559 20.113C27.4688 20.41 28.2406 20.4742 29.1571 20.0568V6.22462C28.7197 6.01925 28.2396 5.92087 27.7566 5.93763C27.2736 5.95438 26.8016 6.08578 26.3796 6.32096Z" fill="white"/>
    <path d="M96.2916 13.0684C96.2916 15.4768 96.3278 17.8852 96.2916 20.2936C96.2314 23.8218 94.6316 25.4555 91.1065 25.5519C88.7993 25.6121 86.488 25.6201 84.1808 25.5519C80.5271 25.4234 78.859 23.7014 78.859 20.0607C78.8322 15.3483 78.8322 10.6346 78.859 5.9195C78.859 2.50762 80.5512 0.805692 83.9316 0.749496C86.3916 0.717384 88.8542 0.716046 91.3195 0.745482C94.5592 0.805692 96.2113 2.43938 96.2876 5.69873C96.3359 8.15528 96.2916 10.6118 96.2916 13.0684ZM88.9078 20.0527V6.19245C87.923 5.83119 87.1151 5.75493 86.3031 6.30083V20.1892C87.2236 20.3337 87.9552 20.434 88.9078 20.0527Z" fill="white"/>
    <path d="M0.349361 17.6325C2.51579 17.3465 4.70885 17.3222 6.88109 17.5602C7.62069 18.363 7.1303 19.3183 7.685 20.0489C8.28793 20.4503 8.94311 20.3941 9.73898 20.0087C10.0858 18.7526 10.1175 17.4306 9.83142 16.1593C9.22448 15.5532 8.64968 15.6576 8.11509 15.6455C6.86099 15.6174 5.59886 15.6777 4.34879 15.5853C1.88884 15.4087 0.309165 13.9035 0.168482 11.463C0.0519122 9.25817 0.0519122 7.04875 0.168482 4.84393C0.260931 2.564 1.97727 0.902209 4.42516 0.797845C7.18256 0.677426 9.95201 0.66137 12.7094 0.797845C15.3502 0.930307 16.9299 2.6804 16.9902 5.31758C17.0103 6.34918 17.2113 7.41689 16.6968 8.54884C14.5544 8.91411 12.3798 8.69334 10.3781 8.66524C9.51388 7.89857 9.97613 6.94726 9.54202 6.25686C8.90291 5.80729 8.24773 5.85546 7.44785 6.25686C6.92531 7.48915 7.18256 8.80974 7.24687 9.97781C7.8096 10.7445 8.48086 10.7244 9.13203 10.7365C10.3379 10.7365 11.5437 10.7084 12.7496 10.7806C15.4387 10.9452 16.9781 12.5548 17.0224 15.2442C17.0585 17.0986 17.0465 18.9571 17.0224 20.8115C16.9942 23.4487 15.4909 25.251 12.8863 25.4798C10.0783 25.7336 7.25319 25.7336 4.44526 25.4798C1.78835 25.2109 0.236814 23.4246 0.144365 20.7433C0.0320155 19.7023 0.101376 18.6498 0.349361 17.6325Z" fill="white"/>
    <path d="M129.803 0.846191C131.905 9.01464 133.971 17.0466 136.077 25.2472C133.665 25.8573 131.463 25.4559 129.393 25.5241C128.323 24.5126 128.673 23.1639 127.93 22.0641C126.346 21.7992 124.682 21.9758 123.074 21.9758C122.178 22.9953 122.475 24.3199 121.739 25.3997C119.613 25.7168 117.447 25.5482 114.87 25.48L121.149 0.846191H129.803ZM125.381 9.96996C124.726 12.3422 124.195 14.3332 124.079 16.3923C125.019 16.862 125.831 16.7937 126.893 16.5449C126.503 14.4215 126.31 12.3422 125.389 9.96996H125.381Z" fill="white"/>
    <path d="M113.294 20.4986C113.652 22.1042 113.511 23.6375 113.399 25.3675H98.8721V0.87826C101.203 0.621366 103.418 0.733757 105.882 0.81805V20.0851C108.447 20.6391 110.874 20.045 113.294 20.4986Z" fill="white"/>
  </g>
  <defs>
    <clipPath id="clip0_193_16122">
      <rect width="136.001" height="24.9469" fill="white" transform="translate(0.0761719 0.701416)"/>
    </clipPath>
  </defs>
</svg>