<svg width="36" height="36" viewBox="0 0 36 36" fill="none" xmlns="http://www.w3.org/2000/svg">
<circle cx="18" cy="18" r="18" fill="#D8E0E9"/>
<path fill-rule="evenodd" clip-rule="evenodd" d="M22.0282 13.8607H23.5094C24.4505 13.8607 25.2066 14.6167 25.2066 15.5579V21.5444C25.2066 22.4856 24.4505 23.2416 23.5094 23.2416H12.7089C11.7677 23.2416 11.0117 22.4856 11.0117 21.5444V15.5579C11.0117 14.6167 11.7677 13.8607 12.7089 13.8607H14.1901L15.0079 12.6263C15.3165 12.1635 15.8565 11.8857 16.4119 11.8857H19.8064C20.3618 11.8857 20.9018 12.1635 21.2104 12.6263L22.0282 13.8607ZM14.2827 18.0266C14.2827 20.1404 15.9953 21.853 18.1091 21.853C20.2229 21.853 21.9356 20.1404 21.9356 18.042C21.9356 15.9282 20.2229 14.2155 18.1091 14.2155C15.9953 14.2155 14.2827 15.9128 14.2827 18.0266ZM23.2316 16.2522H23.2934C23.5711 16.2368 23.7717 16.0053 23.7562 15.7276C23.7408 15.4499 23.5094 15.2339 23.2316 15.2493H22.6145C22.3522 15.2647 22.1516 15.4653 22.1362 15.7276C22.1207 16.0053 22.3367 16.2368 22.6145 16.2522H23.2316ZM15.98 18.0418C15.98 16.8692 16.9366 15.9126 18.1092 15.9126C19.2818 15.9126 20.2384 16.8537 20.2384 18.0264C20.2384 19.199 19.2818 20.1556 18.1092 20.1556C16.9366 20.1556 15.98 19.2144 15.98 18.0418Z" fill="#4D5565"/>
</svg>
