<svg xmlns="http://www.w3.org/2000/svg" width="22" height="22" viewBox="0 0 22 22" fill="none">
  <path d="M9.31977 10.9996C8.85583 10.9996 8.47977 11.3739 8.47977 11.8356C8.47977 12.2974 8.85583 12.6716 9.31977 12.6716H12.6798C13.1437 12.6716 13.5198 12.2974 13.5198 11.8356C13.5198 11.3739 13.1437 10.9996 12.6798 10.9996H9.31977Z" fill="#1A985B"/>
  <path fill-rule="evenodd" clip-rule="evenodd" d="M4.27977 2.63965C2.888 2.63965 1.75977 3.76251 1.75977 5.14765V16.8517C1.75977 18.2368 2.888 19.3596 4.27977 19.3596H17.7198C19.1115 19.3596 20.2398 18.2368 20.2398 16.8517V5.14765C20.2398 3.76251 19.1115 2.63965 17.7198 2.63965H4.27977ZM17.7198 4.31165H4.27977C3.81583 4.31165 3.43977 4.68592 3.43977 5.14765V7.65565H18.5598V5.14765C18.5598 4.68592 18.1837 4.31165 17.7198 4.31165ZM3.43977 16.8517V9.32765H18.5598V16.8517C18.5598 17.3134 18.1837 17.6876 17.7198 17.6876H4.27977C3.81583 17.6876 3.43977 17.3134 3.43977 16.8517Z" fill="#1A985B"/>
</svg>