<svg width="18" height="18" viewBox="0 0 18 18" fill="none" xmlns="http://www.w3.org/2000/svg">
<path d="M6.18125 8.77312C6.97187 9.35063 7.94813 9.6875 9 9.6875C11.5726 9.6875 13.8125 7.46069 13.8125 4.875C13.8125 2.22125 11.6537 0.0625 9 0.0625C6.34625 0.0625 4.1875 2.22125 4.1875 4.875C4.1875 6.47687 4.97125 7.9 6.18125 8.77312Z" fill="#1A985B"/>
<path d="M13.235 9.37793C12.1281 10.4229 10.6363 11.0623 9 11.0623C7.36375 11.0623 5.87188 10.4229 4.765 9.37793C1.96687 10.8904 0.0625 13.8536 0.0625 17.2498C0.0625 17.6279 0.371875 17.9373 0.75 17.9373H17.25C17.6281 17.9373 17.9375 17.6279 17.9375 17.2498C17.9375 13.8536 16.0331 10.8904 13.235 9.37793Z" fill="#1A985B"/>
</svg>
